<svg width="59" height="16" viewBox="0 0 59 16" fill="none" xmlns="http://www.w3.org/2000/svg">
<path d="M5.80664 9.93164H2.18359V7.64648H5.80664C6.36654 7.64648 6.82227 7.55534 7.17383 7.37305C7.52539 7.18424 7.78255 6.92383 7.94531 6.5918C8.10807 6.25977 8.18945 5.88542 8.18945 5.46875C8.18945 5.04557 8.10807 4.65169 7.94531 4.28711C7.78255 3.92253 7.52539 3.62956 7.17383 3.4082C6.82227 3.18685 6.36654 3.07617 5.80664 3.07617H3.19922V15H0.269531V0.78125H5.80664C6.91992 0.78125 7.8737 0.983073 8.66797 1.38672C9.46875 1.78385 10.0807 2.33398 10.5039 3.03711C10.9271 3.74023 11.1387 4.54427 11.1387 5.44922C11.1387 6.36719 10.9271 7.16146 10.5039 7.83203C10.0807 8.5026 9.46875 9.02018 8.66797 9.38477C7.8737 9.74935 6.91992 9.93164 5.80664 9.93164ZM24.8398 7.55859V8.23242C24.8398 9.31315 24.6934 10.2832 24.4004 11.1426C24.1074 12.002 23.694 12.7344 23.1602 13.3398C22.6263 13.9388 21.9883 14.3978 21.2461 14.7168C20.5104 15.0358 19.6934 15.1953 18.7949 15.1953C17.903 15.1953 17.0859 15.0358 16.3438 14.7168C15.6081 14.3978 14.9701 13.9388 14.4297 13.3398C13.8893 12.7344 13.4694 12.002 13.1699 11.1426C12.877 10.2832 12.7305 9.31315 12.7305 8.23242V7.55859C12.7305 6.47135 12.877 5.5013 13.1699 4.64844C13.4629 3.78906 13.8763 3.05664 14.4102 2.45117C14.9505 1.8457 15.5885 1.38346 16.3242 1.06445C17.0664 0.745443 17.8835 0.585938 18.7754 0.585938C19.6738 0.585938 20.4909 0.745443 21.2266 1.06445C21.9688 1.38346 22.6068 1.8457 23.1406 2.45117C23.681 3.05664 24.0977 3.78906 24.3906 4.64844C24.6901 5.5013 24.8398 6.47135 24.8398 7.55859ZM21.8809 8.23242V7.53906C21.8809 6.78385 21.8125 6.11979 21.6758 5.54688C21.5391 4.97396 21.3372 4.49219 21.0703 4.10156C20.8034 3.71094 20.4779 3.41797 20.0938 3.22266C19.7096 3.02083 19.2702 2.91992 18.7754 2.91992C18.2806 2.91992 17.8411 3.02083 17.457 3.22266C17.0794 3.41797 16.7572 3.71094 16.4902 4.10156C16.2298 4.49219 16.0312 4.97396 15.8945 5.54688C15.7578 6.11979 15.6895 6.78385 15.6895 7.53906V8.23242C15.6895 8.98112 15.7578 9.64518 15.8945 10.2246C16.0312 10.7975 16.2331 11.2826 16.5 11.6797C16.7669 12.0703 17.0924 12.3665 17.4766 12.5684C17.8607 12.7702 18.3001 12.8711 18.7949 12.8711C19.2897 12.8711 19.7292 12.7702 20.1133 12.5684C20.4974 12.3665 20.8197 12.0703 21.0801 11.6797C21.3405 11.2826 21.5391 10.7975 21.6758 10.2246C21.8125 9.64518 21.8809 8.98112 21.8809 8.23242ZM34.3516 11.2793C34.3516 11.0254 34.3125 10.7975 34.2344 10.5957C34.1628 10.3874 34.026 10.1986 33.8242 10.0293C33.6224 9.85352 33.3392 9.68099 32.9746 9.51172C32.61 9.34245 32.138 9.16667 31.5586 8.98438C30.9141 8.77604 30.3021 8.54167 29.7227 8.28125C29.1497 8.02083 28.6419 7.7181 28.1992 7.37305C27.763 7.02148 27.418 6.61458 27.1641 6.15234C26.9167 5.6901 26.793 5.15299 26.793 4.54102C26.793 3.94857 26.9232 3.41146 27.1836 2.92969C27.444 2.44141 27.8086 2.02474 28.2773 1.67969C28.7461 1.32812 29.2995 1.05794 29.9375 0.869141C30.582 0.680339 31.2884 0.585938 32.0566 0.585938C33.1048 0.585938 34.0195 0.77474 34.8008 1.15234C35.582 1.52995 36.1875 2.04753 36.6172 2.70508C37.0534 3.36263 37.2715 4.11458 37.2715 4.96094H34.3613C34.3613 4.54427 34.2734 4.17969 34.0977 3.86719C33.9284 3.54818 33.668 3.29753 33.3164 3.11523C32.9714 2.93294 32.5352 2.8418 32.0078 2.8418C31.5 2.8418 31.0768 2.91992 30.7383 3.07617C30.3997 3.22591 30.1458 3.43099 29.9766 3.69141C29.8073 3.94531 29.7227 4.23177 29.7227 4.55078C29.7227 4.79167 29.7812 5.00977 29.8984 5.20508C30.0221 5.40039 30.2044 5.58268 30.4453 5.75195C30.6862 5.92122 30.9824 6.08073 31.334 6.23047C31.6855 6.38021 32.0924 6.52669 32.5547 6.66992C33.3294 6.9043 34.0098 7.16797 34.5957 7.46094C35.1882 7.75391 35.6829 8.08268 36.0801 8.44727C36.4772 8.81185 36.7767 9.22526 36.9785 9.6875C37.1803 10.1497 37.2812 10.6738 37.2812 11.2598C37.2812 11.8783 37.1608 12.4316 36.9199 12.9199C36.679 13.4082 36.3307 13.8216 35.875 14.1602C35.4193 14.4987 34.8757 14.7559 34.2441 14.9316C33.6126 15.1074 32.9062 15.1953 32.125 15.1953C31.4219 15.1953 30.7285 15.1042 30.0449 14.9219C29.3613 14.7331 28.7396 14.4499 28.1797 14.0723C27.6263 13.6947 27.1836 13.2129 26.8516 12.627C26.5195 12.041 26.3535 11.3477 26.3535 10.5469H29.293C29.293 10.9896 29.3613 11.3639 29.498 11.6699C29.6348 11.9759 29.8268 12.2233 30.0742 12.4121C30.3281 12.6009 30.6276 12.7376 30.9727 12.8223C31.3242 12.9069 31.7083 12.9492 32.125 12.9492C32.6328 12.9492 33.0495 12.8776 33.375 12.7344C33.707 12.5911 33.9512 12.3926 34.1074 12.1387C34.2702 11.8848 34.3516 11.5983 34.3516 11.2793ZM41.9102 -0.00976562V15H39.0977V-0.00976562H41.9102ZM48.5703 4.43359L43.9805 9.66797L41.5195 12.1582L40.4941 10.127L42.4473 7.64648L45.1914 4.43359H48.5703ZM45.6504 15L42.5254 10.1172L44.4688 8.41797L48.8926 15H45.6504ZM56.0312 12.4707V4.43359H58.8438V15H56.1973L56.0312 12.4707ZM56.3438 10.3027L57.1738 10.2832C57.1738 10.9863 57.0924 11.6406 56.9297 12.2461C56.7669 12.8451 56.5228 13.3659 56.1973 13.8086C55.8717 14.2448 55.4616 14.5866 54.9668 14.834C54.472 15.0749 53.8893 15.1953 53.2188 15.1953C52.7044 15.1953 52.2292 15.1237 51.793 14.9805C51.3633 14.8307 50.9922 14.5996 50.6797 14.2871C50.3737 13.9681 50.1328 13.5612 49.957 13.0664C49.7878 12.5651 49.7031 11.9629 49.7031 11.2598V4.43359H52.5156V11.2793C52.5156 11.5918 52.5514 11.8555 52.623 12.0703C52.7012 12.2852 52.8086 12.4609 52.9453 12.5977C53.082 12.7344 53.2415 12.832 53.4238 12.8906C53.6126 12.9492 53.821 12.9785 54.0488 12.9785C54.6283 12.9785 55.084 12.8613 55.416 12.627C55.7546 12.3926 55.9922 12.0736 56.1289 11.6699C56.2721 11.2598 56.3438 10.804 56.3438 10.3027Z" fill="black"/>
</svg>
